<?xml version="1.0" encoding="UTF-8" standalone="no"?>
<!-- Created with Inkscape (http://www.inkscape.org/) -->

<svg
   version="1.1"
   id="svg15703"
   width="800"
   height="800"
   viewBox="0 0 800 800"
   sodipodi:docname="green-snowflake-publicdomainvectors.org.svg"
   inkscape:version="1.2 (dc2aedaf03, 2022-05-15)"
   xmlns:inkscape="http://www.inkscape.org/namespaces/inkscape"
   xmlns:sodipodi="http://sodipodi.sourceforge.net/DTD/sodipodi-0.dtd"
   xmlns="http://www.w3.org/2000/svg"
   xmlns:svg="http://www.w3.org/2000/svg">
  <defs
     id="defs15707">
    <clipPath
       clipPathUnits="userSpaceOnUse"
       id="clipPath15719">
      <path
         d="M 0,600 H 600 V 0 H 0 Z"
         id="path15717" />
    </clipPath>
  </defs>
  <sodipodi:namedview
     id="namedview15705"
     pagecolor="#ffffff"
     bordercolor="#000000"
     borderopacity="0.25"
     inkscape:showpageshadow="2"
     inkscape:pageopacity="0.0"
     inkscape:pagecheckerboard="0"
     inkscape:deskcolor="#d1d1d1"
     showgrid="false"
     inkscape:zoom="1.04625"
     inkscape:cx="400"
     inkscape:cy="400.4779"
     inkscape:window-width="1920"
     inkscape:window-height="1017"
     inkscape:window-x="-8"
     inkscape:window-y="-8"
     inkscape:window-maximized="1"
     inkscape:current-layer="g15711">
    <inkscape:page
       x="0"
       y="0"
       id="page15709"
       width="800"
       height="800" />
  </sodipodi:namedview>
  <g
     id="g15711"
     inkscape:groupmode="layer"
     inkscape:label="Page 1"
     transform="matrix(1.3333333,0,0,-1.3333333,0,800)">
    <g
       id="g15713">
      <g
         id="g15715"
         clip-path="url(#clipPath15719)">
        <g
           id="g15721"
           transform="translate(495.9541,323.4854)">
          <path
             d="m 0,0 c 14.193,-3.808 19.555,-29.884 11.93,-58.21 -7.608,-28.379 -25.258,-48.271 -39.395,-44.5 10.326,-10.377 1.938,-35.605 -18.814,-56.311 -20.756,-20.755 -46.012,-29.142 -56.358,-18.779 3.817,-14.179 -16.09,-31.804 -44.457,-39.347 -28.291,-7.612 -54.322,-2.256 -58.138,11.89 -3.811,-14.146 -29.844,-19.502 -58.211,-11.89 -28.369,7.543 -48.271,25.199 -44.503,39.392 -10.377,-10.377 -35.595,-1.943 -56.31,18.811 -20.754,20.752 -29.143,45.976 -18.815,56.351 -14.141,-3.812 -31.792,16.09 -39.321,44.414 -7.626,28.336 -2.257,54.371 11.888,58.179 -14.145,3.813 -19.514,29.852 -11.888,58.215 7.578,28.38 25.256,48.271 39.401,44.499 -10.331,10.337 -1.942,35.602 18.812,56.312 20.756,20.76 45.933,29.149 56.355,18.772 -3.81,14.142 16.091,31.792 44.413,39.369 28.335,7.581 54.368,2.258 58.179,-11.932 3.816,14.19 29.847,19.513 58.214,11.932 28.381,-7.577 48.27,-25.227 44.465,-39.401 10.416,10.332 35.596,1.944 56.348,-18.811 20.756,-20.757 29.158,-45.978 18.74,-56.355 C -13.25,106.365 4.322,86.508 11.93,58.183 19.516,29.809 14.193,3.771 0,0"
             style="fill:#bfdf14;fill-opacity:1;fill-rule:nonzero;stroke:none"
             id="path15723" />
        </g>
        <g
           id="g15725"
           transform="translate(237.354,522.6699)">
          <path
             d="m 0,0 c -19.17,-5.131 -29.294,-14.527 -30.831,-18.099 0.799,-2.967 17.625,-65.421 17.625,-65.421 0,0 -46.293,46.09 -48.174,47.966 -4.137,0.283 -17.237,-3.966 -31.036,-17.768 -13.384,-13.357 -17.813,-26.157 -17.813,-30.702 0,-0.122 0.022,-0.198 0.028,-0.311 1.967,-1.966 47.957,-47.97 47.957,-47.97 0,0 -62.474,16.656 -65.407,17.439 -3.579,-1.523 -13.017,-11.664 -18.154,-30.908 -2.069,-7.696 -2.815,-14.506 -2.815,-20.109 0,-8.469 1.702,-13.924 3.113,-15.745 2.963,-0.798 65.19,-17.573 65.19,-17.573 0,0 -62.23,-16.746 -65.196,-17.541 -1.408,-1.824 -3.111,-7.276 -3.111,-15.729 0,-5.589 0.744,-12.382 2.809,-20.052 5.105,-19.205 14.482,-29.321 18.054,-30.858 2.97,0.801 65.425,17.639 65.425,17.639 0,0 -46.018,-46.233 -47.938,-48.162 -0.006,-0.119 -0.032,-0.199 -0.032,-0.33 0,-4.543 4.429,-17.346 17.813,-30.731 13.741,-13.765 26.815,-18.049 30.99,-17.803 1.938,1.936 47.899,47.897 47.899,47.897 0,0 -16.585,-62.463 -17.347,-65.34 1.499,-3.57 11.628,-13.008 30.893,-18.131 19.343,-5.191 32.837,-2.043 35.866,0.293 0.794,2.969 17.534,65.186 17.534,65.186 0,0 16.783,-62.227 17.586,-65.18 3.02,-2.342 16.481,-5.494 35.737,-0.31 19.257,5.117 29.386,14.5 30.912,18.066 -0.795,2.932 -17.715,65.826 -17.715,65.826 0,0 46.304,-46.396 48.263,-48.353 4.188,-0.246 17.284,4.027 31.034,17.773 13.386,13.359 17.81,26.145 17.81,30.688 0,0.132 -0.025,0.214 -0.031,0.334 -1.918,1.931 -47.658,47.896 -47.658,47.896 0,0 62.158,-16.586 65.107,-17.371 3.578,1.529 13.002,11.68 18.158,30.92 2.071,7.68 2.817,14.478 2.817,20.074 0,8.473 -1.713,13.93 -3.125,15.749 -2.936,0.784 -65.795,17.656 -65.795,17.656 0,0 62.834,16.695 65.814,17.486 1.284,1.675 3.137,6.93 3.137,15.659 0,5.496 -0.744,12.263 -2.848,20.139 -5.451,20.298 -14.923,29.479 -18.119,30.838 -2.834,-0.75 -65.553,-17.364 -65.553,-17.364 0,0 46.198,46.024 48.122,47.941 0.007,0.119 0.031,0.2 0.031,0.331 0,4.534 -4.426,17.303 -17.789,30.672 -13.801,13.802 -26.92,18.057 -31.069,17.778 -1.89,-1.879 -47.972,-47.595 -47.972,-47.595 0,0 16.676,62.173 17.457,65.088 -1.512,3.569 -11.641,12.984 -30.875,18.118 -19.336,5.17 -32.824,2.021 -35.844,-0.314 -0.791,-2.944 -17.566,-65.421 -17.566,-65.421 0,0 -16.779,62.484 -17.567,65.421 C 32.779,2.017 19.311,5.166 0,0"
             style="fill:#ffffff;fill-opacity:1;fill-rule:nonzero;stroke:none"
             id="path15727" />
        </g>
        <g
           id="g15729"
           transform="translate(240.7471,509.98)">
          <path
             d="m 0,0 c -9.941,-2.658 -16.187,-6.403 -19.645,-9.03 3.02,-11.207 28.458,-105.64 28.458,-105.64 0,0 -69.315,69.019 -77.631,77.296 -4.05,-1.713 -10.428,-5.27 -17.701,-12.545 -7.256,-7.238 -10.816,-13.606 -12.541,-17.683 8.318,-8.32 77.28,-77.299 77.28,-77.299 0,0 -94.484,25.19 -105.648,28.166 -2.635,-3.457 -6.409,-9.732 -9.081,-19.734 -1.574,-5.863 -2.37,-11.484 -2.37,-16.724 0,-2.258 0.218,-3.585 0.408,-4.951 11.166,-3.011 105.271,-28.38 105.271,-28.38 0,0 -94.086,-25.313 -105.275,-28.325 -0.19,-1.363 -0.407,-2.686 -0.407,-4.932 0,-5.232 0.793,-10.826 2.357,-16.637 2.652,-9.974 6.382,-16.226 9.001,-19.689 11.234,3.027 105.628,28.479 105.628,28.479 0,0 -68.983,-69.311 -77.257,-77.624 1.725,-4.076 5.288,-10.466 12.554,-17.736 7.251,-7.26 13.61,-10.824 17.669,-12.549 8.332,8.33 77.145,77.147 77.145,77.147 0,0 -25.057,-94.379 -28.008,-105.516 3.445,-2.631 9.717,-6.39 19.716,-9.052 10.017,-2.688 17.367,-2.569 21.678,-2.018 2.994,11.117 28.329,105.303 28.329,105.303 0,0 25.416,-94.223 28.406,-105.309 4.289,-0.549 11.594,-0.67 21.521,2 10.004,2.658 16.28,6.399 19.743,9.018 -3.03,11.24 -28.606,106.304 -28.606,106.304 0,0 69.465,-69.593 77.789,-77.929 4.067,1.716 10.438,5.273 17.697,12.527 7.264,7.25 10.825,13.629 12.551,17.697 -8.256,8.293 -76.791,77.168 -76.791,77.168 0,0 93.973,-25.07 105.133,-28.047 2.635,3.465 6.404,9.746 9.094,19.758 1.572,5.834 2.367,11.436 2.367,16.676 0,2.254 -0.219,3.578 -0.412,4.945 -11.203,3.008 -106.293,28.523 -106.293,28.523 0,0 95.211,25.296 106.377,28.262 0.178,1.347 0.357,2.784 0.357,4.82 0,5.143 -0.806,10.781 -2.404,16.748 -2.686,10.015 -6.354,16.256 -8.99,19.697 -11.084,-2.934 -105.92,-28.056 -105.92,-28.056 0,0 69.17,68.91 77.521,77.224 -1.732,4.073 -5.287,10.422 -12.513,17.657 -7.293,7.293 -13.694,10.852 -17.752,12.561 -8.295,-8.232 -77.303,-76.689 -77.303,-76.689 0,0 25.193,93.893 28.191,105.069 -3.453,2.629 -9.714,6.381 -19.695,9.046 C 90.006,2.668 82.656,2.543 78.354,1.995 75.371,-9.126 49.967,-103.697 49.967,-103.697 c 0,0 -25.39,94.565 -28.373,105.692 C 17.29,2.546 9.966,2.665 0,0"
             style="fill:#bfdf14;fill-opacity:1;fill-rule:nonzero;stroke:none"
             id="path15731" />
        </g>
      </g>
    </g>
  </g>
</svg>
