<?xml version="1.0" encoding="UTF-8" standalone="no"?>
<!-- Created with Inkscape (http://www.inkscape.org/) -->

<svg
   version="1.1"
   id="svg6586"
   width="729.46167"
   height="350.6073"
   viewBox="0 0 729.46167 350.6073"
   sodipodi:docname="1668432633colorful-3d-glossy-stars.trimmed.svg"
   inkscape:version="1.2.1 (9c6d41e410, 2022-07-14)"
   xmlns:inkscape="http://www.inkscape.org/namespaces/inkscape"
   xmlns:sodipodi="http://sodipodi.sourceforge.net/DTD/sodipodi-0.dtd"
   xmlns="http://www.w3.org/2000/svg"
   xmlns:svg="http://www.w3.org/2000/svg">
  <defs
     id="defs6590">
    <clipPath
       clipPathUnits="userSpaceOnUse"
       id="clipPath6602">
      <path
         d="M 0,600 H 600 V 0 H 0 Z"
         id="path6600" />
    </clipPath>
  </defs>
  <sodipodi:namedview
     id="namedview6588"
     pagecolor="#000000"
     bordercolor="#000000"
     borderopacity="0.25"
     inkscape:showpageshadow="2"
     inkscape:pageopacity="1"
     inkscape:pagecheckerboard="0"
     inkscape:deskcolor="#d1d1d1"
     showgrid="false"
     inkscape:zoom="1.04625"
     inkscape:cx="253.76344"
     inkscape:cy="217.92115"
     inkscape:window-width="1920"
     inkscape:window-height="1009"
     inkscape:window-x="1912"
     inkscape:window-y="-8"
     inkscape:window-maximized="1"
     inkscape:current-layer="g6594">
    <inkscape:page
       x="0"
       y="0"
       id="page6592"
       width="729.46167"
       height="350.6073" />
  </sodipodi:namedview>
  <g
     id="g6594"
     inkscape:groupmode="layer"
     inkscape:label="Page 1"
     transform="matrix(1.3333333,0,0,-1.3333333,-40.213566,616.61305)">
    <g
       id="g6596">
      <g
         id="g6598"
         clip-path="url(#clipPath6602)">
        <g
           id="g6604"
           transform="translate(492.75,376.8037)">
          <path
             d="m 0,0 27.371,-40.872 47.33,-13.401 c 3.31,-0.937 5.896,-2.958 7.578,-5.513 h 2.227 v -7.428 c -0.002,-2.861 -0.92,-5.775 -2.904,-8.296 l -30.416,-38.662 1.881,-49.155 c 0.369,-9.6 -9.048,-16.441 -18.064,-13.125 l -46.168,16.977 -46.168,-16.977 c -9.015,-3.316 -18.433,3.525 -18.065,13.125 l 1.88,49.155 -30.415,38.662 c -1.982,2.521 -2.9,5.435 -2.902,8.296 h -0.001 v 7.428 h 2.228 c 1.682,2.555 4.267,4.576 7.578,5.513 L -49.701,-40.872 -22.331,0 C -17.017,7.937 -5.315,7.937 0,0"
             style="fill:#638329;fill-opacity:1;fill-rule:evenodd;stroke:none"
             id="path6606" />
        </g>
        <g
           id="g6608"
           transform="translate(492.75,384.3867)">
          <path
             d="m 0,0 27.371,-40.872 47.33,-13.4 c 9.243,-2.619 12.84,-13.688 6.901,-21.238 l -30.416,-38.663 1.881,-49.154 c 0.369,-9.599 -9.048,-16.441 -18.064,-13.125 l -46.168,16.978 -46.168,-16.978 c -9.015,-3.316 -18.433,3.526 -18.065,13.125 l 1.88,49.154 -30.415,38.663 c -5.937,7.55 -2.34,18.619 6.903,21.238 l 47.329,13.4 L -22.331,0 C -17.017,7.936 -5.315,7.936 0,0"
             style="fill:#87b027;fill-opacity:1;fill-rule:evenodd;stroke:none"
             id="path6610" />
        </g>
        <g
           id="g6612"
           transform="translate(492.75,384.3867)">
          <path
             d="m 0,0 27.371,-40.872 19.48,-5.516 c -4.158,-41.617 -54.7,-75.721 -120.985,-83.894 l 0.616,16.109 -30.415,38.663 c -5.937,7.55 -2.34,18.619 6.903,21.238 l 47.329,13.4 L -22.331,0 C -17.017,7.936 -5.315,7.936 0,0"
             style="fill:#99c222;fill-opacity:1;fill-rule:evenodd;stroke:none"
             id="path6614" />
        </g>
        <g
           id="g6616"
           transform="translate(484.8975,379.1279)">
          <path
             d="m 0,0 c -1.576,2.354 -5.048,2.355 -6.624,0 l -29.305,-43.761 -45.617,-12.915 h -7.899 V -61.1 c -0.233,-1.094 0,-2.297 0.795,-3.308 l 32.562,-41.394 -2.014,-52.628 c -0.11,-2.886 2.65,-4.89 5.361,-3.893 l 49.428,18.177 49.43,-18.177 c 2.711,-0.997 5.471,1.007 5.361,3.893 l -2.014,52.628 32.562,41.394 c 0.662,0.84 0.932,1.811 0.872,2.743 h 0.001 v 4.989 h -7.978 l -45.616,12.915 z"
             style="fill:#769a2a;fill-opacity:1;fill-rule:evenodd;stroke:none"
             id="path6618" />
        </g>
        <g
           id="g6620"
           transform="translate(484.8975,383.5513)">
          <path
             d="m 0,0 c -1.576,2.354 -5.048,2.355 -6.624,0 l -29.305,-43.76 -50.675,-14.348 c -2.778,-0.787 -3.833,-4.03 -2.046,-6.301 l 32.562,-41.393 -2.014,-52.628 c -0.11,-2.887 2.65,-4.891 5.361,-3.893 l 49.428,18.179 49.43,-18.179 c 2.711,-0.998 5.471,1.006 5.361,3.893 l -2.014,52.628 32.562,41.393 c 1.787,2.271 0.732,5.514 -2.048,6.301 L 29.305,-43.76 Z"
             style="fill:#b5dd25;fill-opacity:1;fill-rule:evenodd;stroke:none"
             id="path6622" />
        </g>
        <g
           id="g6624"
           transform="translate(484.8975,383.5513)">
          <path
             d="m 0,0 c -1.576,2.354 -5.048,2.355 -6.624,0 l -29.305,-43.76 -50.675,-14.348 c -2.778,-0.787 -3.833,-4.03 -2.046,-6.301 l 32.562,-41.393 -0.6,-15.677 c 55.126,9.474 97.437,37.182 107.705,71.571 l -21.712,6.148 z"
             style="fill:#a8d21c;fill-opacity:1;fill-rule:evenodd;stroke:none"
             id="path6626" />
        </g>
        <g
           id="g6628"
           transform="translate(500.752,237.7881)">
          <path
             d="m 0,0 30.466,-11.204 -1.17,30.552 C 21.619,10.409 11.514,3.618 0,0 M -67.631,19.348 -68.8,-11.204 -38.334,0 C -49.847,3.618 -59.952,10.409 -67.631,19.348 M 44.675,62.272 61.14,83.202 37.801,89.811 c 4.215,-8.299 6.67,-17.642 6.874,-27.539"
             style="fill:#cce542;fill-opacity:1;fill-rule:evenodd;stroke:none"
             id="path6630" />
        </g>
        <g
           id="g6632"
           transform="translate(481.585,379.3369)">
          <path
             d="m 0,0 -11.978,-17.886 c 3.88,0.736 7.882,1.126 11.978,1.126 4.095,0 8.097,-0.39 11.978,-1.126 z m -56.969,-51.738 -23.338,-6.609 16.465,-20.929 c 0.205,9.896 2.658,19.241 6.873,27.538"
             style="fill:#b4dc1e;fill-opacity:1;fill-rule:evenodd;stroke:none"
             id="path6634" />
        </g>
        <g
           id="g6636"
           transform="translate(136.9966,376.8037)">
          <path
             d="m 0,0 27.371,-40.872 47.33,-13.401 c 3.31,-0.937 5.895,-2.958 7.578,-5.513 h 2.226 v -7.428 c -10e-4,-2.861 -0.92,-5.775 -2.904,-8.296 l -30.413,-38.662 1.88,-49.155 c 0.368,-9.6 -9.05,-16.441 -18.066,-13.125 l -46.167,16.977 -46.168,-16.977 c -9.015,-3.316 -18.433,3.525 -18.065,13.125 l 1.881,49.155 -30.415,38.662 c -1.983,2.521 -2.901,5.435 -2.903,8.296 h -0.001 v 7.428 h 2.228 c 1.682,2.555 4.267,4.576 7.577,5.513 l 47.33,13.401 L -22.331,0 C -17.016,7.937 -5.314,7.937 0,0"
             style="fill:#89201c;fill-opacity:1;fill-rule:evenodd;stroke:none"
             id="path6638" />
        </g>
        <g
           id="g6640"
           transform="translate(136.9966,384.3867)">
          <path
             d="m 0,0 27.371,-40.872 47.33,-13.4 c 9.243,-2.619 12.84,-13.688 6.9,-21.238 l -30.413,-38.663 1.88,-49.154 c 0.368,-9.599 -9.05,-16.441 -18.066,-13.125 l -46.167,16.978 -46.168,-16.978 c -9.015,-3.316 -18.433,3.526 -18.065,13.125 l 1.881,49.154 -30.415,38.663 c -5.939,7.55 -2.342,18.619 6.901,21.238 l 47.33,13.4 L -22.331,0 C -17.016,7.936 -5.314,7.936 0,0"
             style="fill:#cc2d23;fill-opacity:1;fill-rule:evenodd;stroke:none"
             id="path6642" />
        </g>
        <g
           id="g6644"
           transform="translate(136.9966,384.3867)">
          <path
             d="m 0,0 27.371,-40.872 19.479,-5.516 c -4.156,-41.617 -54.698,-75.721 -120.984,-83.894 l 0.617,16.109 -30.415,38.663 c -5.939,7.55 -2.342,18.619 6.901,21.238 l 47.33,13.4 L -22.331,0 C -17.016,7.936 -5.314,7.936 0,0"
             style="fill:#db2f23;fill-opacity:1;fill-rule:evenodd;stroke:none"
             id="path6646" />
        </g>
        <g
           id="g6648"
           transform="translate(129.1436,379.1279)">
          <path
             d="m 0,0 c -1.577,2.354 -5.047,2.355 -6.624,0 l -29.305,-43.761 -45.616,-12.915 h -7.9 V -61.1 c -0.232,-1.094 0,-2.297 0.795,-3.308 l 32.563,-41.394 -2.014,-52.628 c -0.111,-2.886 2.649,-4.89 5.36,-3.893 l 49.429,18.177 49.43,-18.177 c 2.711,-0.997 5.469,1.007 5.36,3.893 l -2.014,52.628 32.563,41.394 c 0.661,0.84 0.932,1.811 0.872,2.743 v 4.989 h -7.977 l -45.617,12.915 z"
             style="fill:#b42922;fill-opacity:1;fill-rule:evenodd;stroke:none"
             id="path6650" />
        </g>
        <g
           id="g6652"
           transform="translate(129.1436,383.5513)">
          <path
             d="m 0,0 c -1.577,2.354 -5.047,2.355 -6.624,0 l -29.305,-43.76 -50.675,-14.348 c -2.778,-0.787 -3.832,-4.03 -2.046,-6.301 l 32.563,-41.393 -2.014,-52.628 c -0.111,-2.887 2.649,-4.891 5.36,-3.893 l 49.429,18.179 49.43,-18.179 c 2.711,-0.998 5.469,1.006 5.36,3.893 l -2.014,52.628 32.563,41.393 c 1.786,2.271 0.732,5.514 -2.048,6.301 L 29.305,-43.76 Z"
             style="fill:#f25c26;fill-opacity:1;fill-rule:evenodd;stroke:none"
             id="path6654" />
        </g>
        <g
           id="g6656"
           transform="translate(129.1436,383.5513)">
          <path
             d="m 0,0 c -1.577,2.354 -5.047,2.355 -6.624,0 l -29.305,-43.76 -50.675,-14.348 c -2.778,-0.787 -3.832,-4.03 -2.046,-6.301 l 32.563,-41.393 -0.6,-15.677 c 55.125,9.474 97.437,37.182 107.704,71.571 l -21.712,6.148 z"
             style="fill:#f0421e;fill-opacity:1;fill-rule:evenodd;stroke:none"
             id="path6658" />
        </g>
        <g
           id="g6660"
           transform="translate(144.998,237.7881)">
          <path
             d="m 0,0 30.466,-11.204 -1.17,30.552 C 21.62,10.409 11.514,3.618 0,0 M -67.63,19.348 -68.799,-11.204 -38.333,0 C -49.846,3.618 -59.952,10.409 -67.63,19.348 m 112.305,42.924 16.466,20.93 -23.34,6.609 c 4.216,-8.299 6.67,-17.642 6.874,-27.539"
             style="fill:#f57c48;fill-opacity:1;fill-rule:evenodd;stroke:none"
             id="path6662" />
        </g>
        <g
           id="g6664"
           transform="translate(125.8315,379.3369)">
          <path
             d="m 0,0 -11.977,-17.886 c 3.88,0.736 7.883,1.126 11.977,1.126 4.095,0 8.098,-0.39 11.979,-1.126 z m -56.968,-51.738 -23.339,-6.609 16.466,-20.929 c 0.204,9.896 2.657,19.241 6.873,27.538"
             style="fill:#f35e2e;fill-opacity:1;fill-rule:evenodd;stroke:none"
             id="path6666" />
        </g>
        <g
           id="g6668"
           transform="translate(319.3613,443.8086)">
          <path
             d="m 0,0 37.715,-56.318 65.218,-18.466 c 4.56,-1.291 8.122,-4.076 10.441,-7.596 h 3.067 v -10.235 c -0.002,-3.942 -1.267,-7.958 -4.001,-11.433 l -41.908,-53.272 2.592,-67.731 c 0.506,-13.227 -12.47,-22.654 -24.894,-18.086 L -15.385,-219.741 -79,-243.137 c -12.423,-4.568 -25.399,4.859 -24.894,18.086 l 2.592,67.731 -41.908,53.272 c -2.733,3.475 -3.999,7.491 -4,11.433 h -0.002 v 10.235 h 3.069 c 2.319,3.52 5.882,6.305 10.442,7.596 L -68.484,-56.318 -30.769,0 C -23.447,10.936 -7.322,10.936 0,0"
             style="fill:#d37b1a;fill-opacity:1;fill-rule:evenodd;stroke:none"
             id="path6670" />
        </g>
        <g
           id="g6672"
           transform="translate(319.3613,454.2578)">
          <path
             d="m 0,0 37.715,-56.319 65.218,-18.465 c 12.734,-3.606 17.692,-18.86 9.507,-29.264 l -41.908,-53.271 2.592,-67.733 c 0.506,-13.227 -12.47,-22.654 -24.894,-18.085 L -15.385,-219.742 -79,-243.137 c -12.423,-4.569 -25.399,4.858 -24.894,18.085 l 2.592,67.733 -41.908,53.271 c -8.184,10.404 -3.227,25.657 9.509,29.264 L -68.484,-56.319 -30.769,0 C -23.447,10.936 -7.322,10.936 0,0"
             style="fill:#fabb0e;fill-opacity:1;fill-rule:evenodd;stroke:none"
             id="path6674" />
        </g>
        <g
           id="g6676"
           transform="translate(319.3613,454.2578)">
          <path
             d="m 0,0 37.715,-56.319 26.841,-7.6 c -5.729,-57.346 -75.37,-104.339 -166.706,-115.599 l 0.848,22.199 -41.908,53.271 c -8.184,10.404 -3.227,25.657 9.509,29.264 L -68.484,-56.319 -30.769,0 C -23.447,10.936 -7.322,10.936 0,0"
             style="fill:#f2a50f;fill-opacity:1;fill-rule:evenodd;stroke:none"
             id="path6678" />
        </g>
        <g
           id="g6680"
           transform="translate(308.541,447.0117)">
          <path
             d="m 0,0 c -2.174,3.245 -6.955,3.245 -9.13,0 l -40.378,-60.298 -62.856,-17.797 h -10.885 v -6.096 c -0.32,-1.508 -0.001,-3.166 1.095,-4.559 l 44.869,-57.036 -2.775,-72.518 c -0.152,-3.977 3.65,-6.738 7.385,-5.365 l 68.111,25.048 68.109,-25.048 c 3.736,-1.373 7.538,1.388 7.386,5.365 l -2.776,72.518 44.87,57.036 c 0.911,1.157 1.285,2.497 1.203,3.781 v 6.874 H 103.235 L 40.38,-60.298 Z"
             style="fill:#e59c13;fill-opacity:1;fill-rule:evenodd;stroke:none"
             id="path6682" />
        </g>
        <g
           id="g6684"
           transform="translate(308.541,453.1064)">
          <path
             d="m 0,0 c -2.174,3.245 -6.955,3.245 -9.13,0 l -40.378,-60.298 -69.826,-19.77 c -3.828,-1.084 -5.281,-5.553 -2.82,-8.682 l 44.869,-57.035 -2.775,-72.518 c -0.152,-3.978 3.65,-6.74 7.385,-5.365 l 68.111,25.048 68.109,-25.048 c 3.736,-1.375 7.538,1.387 7.386,5.365 l -2.776,72.518 44.87,57.035 c 2.46,3.129 1.009,7.598 -2.821,8.682 l -69.824,19.77 z"
             style="fill:#fbd730;fill-opacity:1;fill-rule:evenodd;stroke:none"
             id="path6686" />
        </g>
        <g
           id="g6688"
           transform="translate(308.541,453.1064)">
          <path
             d="m 0,0 c -2.174,3.245 -6.955,3.245 -9.13,0 l -40.378,-60.298 -69.826,-19.77 c -3.828,-1.084 -5.281,-5.553 -2.82,-8.682 l 44.869,-57.035 -0.826,-21.603 c 75.959,13.054 134.261,51.234 148.408,98.62 l -29.917,8.47 z"
             style="fill:#fbca07;fill-opacity:1;fill-rule:evenodd;stroke:none"
             id="path6690" />
        </g>
        <g
           id="g6692"
           transform="translate(330.3857,252.2568)">
          <path
             d="M 0,0 41.982,-15.439 40.369,26.66 C 29.792,14.344 15.864,4.985 0,0 M -93.187,26.66 -94.799,-15.439 -52.819,0 c -15.864,4.985 -29.79,14.344 -40.368,26.66 m 154.747,59.147 22.688,28.839 -32.159,9.106 c 5.808,-11.436 9.19,-24.31 9.471,-37.945"
             style="fill:#fce35b;fill-opacity:1;fill-rule:evenodd;stroke:none"
             id="path6694" />
        </g>
        <g
           id="g6696"
           transform="translate(303.9766,447.3003)">
          <path
             d="m 0,0 -16.505,-24.647 c 5.347,1.015 10.863,1.553 16.505,1.553 5.642,0 11.157,-0.538 16.505,-1.553 z m -78.497,-71.292 -32.16,-9.105 22.688,-28.84 c 0.281,13.636 3.662,26.511 9.472,37.945"
             style="fill:#fbdb3b;fill-opacity:1;fill-rule:evenodd;stroke:none"
             id="path6698" />
        </g>
      </g>
    </g>
  </g>
</svg>
